<svg width="128" height="128" viewBox="0 0 128 128" xmlns="http://www.w3.org/2000/svg" role="img" aria-label="Purnama Bersantai">
  <defs>
    <radialGradient id="moon" cx="42%" cy="34%" r="68%">
      <stop offset="0" stop-color="#fff8d8"/>
      <stop offset="0.46" stop-color="#c9d0c7"/>
      <stop offset="1" stop-color="#23324b"/>
    </radialGradient>
    <filter id="shadow" x="-20%" y="-20%" width="140%" height="140%">
      <feDropShadow dx="0" dy="8" stdDeviation="7" flood-color="#000" flood-opacity=".42"/>
    </filter>
  </defs>
  <rect width="128" height="128" rx="30" fill="#2f2e2e"/>
  <circle cx="64" cy="64" r="45" fill="url(#moon)" filter="url(#shadow)"/>
  <path d="M43 88c12-20 25-34 44-43-8 15-14 30-13 49-10 6-22 5-31-6Z" fill="#101827" opacity=".78"/>
  <path d="M34 54c7 2 13 2 19-1M72 29c4 4 7 8 9 13M48 31c4 2 7 5 10 9M90 67c4 0 8-1 12-4" fill="none" stroke="#101827" stroke-width="4" stroke-linecap="round" opacity=".55"/>
  <text x="64" y="79" text-anchor="middle" font-family="Georgia, serif" font-size="38" font-weight="900" fill="#fff700" stroke="#111" stroke-width="4" paint-order="stroke">PB</text>
</svg>
